<?xml version="1.0" encoding="UTF-8" standalone="no"?>
<!DOCTYPE svg PUBLIC "-//W3C//DTD SVG 1.1//EN" "http://www.w3.org/Graphics/SVG/1.1/DTD/svg11.dtd">
<svg width="100%" height="100%" viewBox="0 0 200 200" version="1.1" xmlns="http://www.w3.org/2000/svg" xmlns:xlink="http://www.w3.org/1999/xlink" xml:space="preserve" xmlns:serif="http://www.serif.com/" style="fill-rule:evenodd;clip-rule:evenodd;stroke-linejoin:round;stroke-miterlimit:2;">
    <g transform="matrix(0.216642,0,0,0.216642,-154.869,-6.15475)">
        <rect x="1088.44" y="298.33" width="176.01" height="383.328" style="fill:rgb(216,217,217);fill-rule:nonzero;"/>
        <path d="M1118.28,681.67L1168.99,681.67L1234.62,649.277L1234.62,603.026L1118.28,660.449L1118.28,681.67Z" style="fill:rgb(194,32,38);fill-rule:nonzero;"/>
        <path d="M1234.62,325.59L1118.28,383.01L1118.28,429.25L1234.62,371.827L1234.62,325.59Z" style="fill:rgb(44,123,192);fill-rule:nonzero;"/>
        <path d="M1118.28,298.33L1118.28,336.767L1196.16,298.33L1118.28,298.33Z" style="fill:rgb(194,32,38);fill-rule:nonzero;"/>
        <path d="M1118.28,614.209L1234.62,556.786L1234.62,510.546L1118.28,567.969L1118.28,614.209Z" style="fill:rgb(44,123,192);fill-rule:nonzero;"/>
        <path d="M1118.28,475.49L1118.28,521.73L1234.62,464.307L1234.62,418.067L1118.28,475.49Z" style="fill:rgb(194,32,38);fill-rule:nonzero;"/>
        <path d="M1234.62,298.33L1196.16,298.33L1118.28,336.767L1118.28,383.01L1234.62,325.59L1234.62,298.33Z" style="fill:white;fill-rule:nonzero;"/>
        <path d="M1234.62,418.067L1234.62,371.825L1234.62,371.827L1118.28,429.25L1118.28,475.492L1118.28,475.49L1234.62,418.067Z" style="fill:white;fill-rule:nonzero;"/>
        <path d="M1118.28,521.73L1118.28,567.971L1118.28,567.969L1234.62,510.546L1234.62,464.305L1234.62,464.307L1118.28,521.73Z" style="fill:white;fill-rule:nonzero;"/>
        <path d="M1118.28,614.209L1118.28,660.451L1118.28,660.449L1234.62,603.026L1234.62,556.784L1234.62,556.786L1118.28,614.209Z" style="fill:white;fill-rule:nonzero;"/>
        <path d="M1168.99,681.672L1234.62,681.672L1234.62,649.275L1234.62,649.277L1168.99,681.67L1168.99,681.672Z" style="fill:white;fill-rule:nonzero;"/>
        <path d="M1174.96,681.672L1129.02,681.672L1168.99,681.67L1169.02,681.658L1168.99,681.67L1168.99,681.672L1174.96,681.672Z" style="fill:white;fill-rule:nonzero;"/>
        <path d="M1168.99,681.67L1129.02,681.67L1129.02,655.15L1174.96,632.474L1174.96,678.727L1169.02,681.658L1168.99,681.67Z" style="fill:rgb(226,133,133);fill-rule:nonzero;"/>
        <path d="M1129.02,423.951L1129.02,377.711L1174.96,355.036L1174.96,401.275L1129.02,423.951Z" style="fill:rgb(134,193,233);fill-rule:nonzero;"/>
        <path d="M1129.02,331.468L1129.02,298.33L1174.96,298.33L1174.96,308.793L1129.02,331.468Z" style="fill:rgb(226,133,133);fill-rule:nonzero;"/>
        <path d="M1129.02,608.91L1129.02,562.67L1174.96,539.994L1174.96,586.234L1129.02,608.91Z" style="fill:rgb(134,193,233);fill-rule:nonzero;"/>
        <path d="M1129.02,516.43L1129.02,470.191L1174.96,447.515L1174.96,493.754L1129.02,516.43Z" style="fill:rgb(226,133,133);fill-rule:nonzero;"/>
        <path d="M1129.02,377.711L1129.02,331.468L1174.96,308.793L1174.96,355.036L1129.02,377.711Z" style="fill:white;fill-rule:nonzero;"/>
        <path d="M1129.02,470.191L1129.02,423.951L1174.96,401.275L1174.96,447.515L1129.02,470.191Z" style="fill:white;fill-rule:nonzero;"/>
        <path d="M1129.02,562.67L1129.02,516.43L1174.96,493.754L1174.96,539.994L1129.02,562.67Z" style="fill:white;fill-rule:nonzero;"/>
        <path d="M1129.02,655.15L1129.02,608.91L1174.96,586.234L1174.96,632.474L1129.02,655.15Z" style="fill:white;fill-rule:nonzero;"/>
        <path d="M1174.96,681.672L1168.99,681.672L1168.99,681.67L1169.02,681.658L1174.96,678.727L1174.96,681.672Z" style="fill:white;fill-rule:nonzero;"/>
        <rect x="1088.44" y="298.33" width="11.91" height="383.342" style="fill:rgb(193,193,193);fill-rule:nonzero;"/>
        <rect x="1252.54" y="298.33" width="11.91" height="383.342" style="fill:rgb(156,156,156);fill-rule:nonzero;"/>
        <rect x="1068.31" y="224.497" width="216.27" height="49.218" style="fill:rgb(193,193,193);fill-rule:nonzero;"/>
        <rect x="1080.99" y="273.719" width="190.92" height="24.611" style="fill:rgb(193,193,193);fill-rule:nonzero;"/>
        <rect x="1094.4" y="273.719" width="53.46" height="24.611" style="fill:white;fill-rule:nonzero;"/>
        <rect x="1190.3" y="273.719" width="26.73" height="24.611" style="fill:rgb(216,217,217);fill-rule:nonzero;"/>
        <rect x="1080.99" y="273.719" width="13.41" height="24.611" style="fill:rgb(219,218,218);fill-rule:nonzero;"/>
        <rect x="1244.02" y="273.719" width="27.89" height="24.611" style="fill:rgb(156,156,156);fill-rule:nonzero;"/>
        <rect x="1237.78" y="224.496" width="46.81" height="49.223" style="fill:rgb(156,156,156);fill-rule:nonzero;"/>
        <rect x="1068.31" y="224.496" width="11.1" height="49.223" style="fill:rgb(219,218,218);fill-rule:nonzero;"/>
        <rect x="1079.41" y="224.496" width="63.57" height="49.223" style="fill:white;fill-rule:nonzero;"/>
        <rect x="1196.16" y="224.496" width="19.39" height="49.223" style="fill:rgb(216,217,217);fill-rule:nonzero;"/>
        <rect x="1080.99" y="273.608" width="190.92" height="4.187" style="fill:rgb(156,156,156);fill-rule:nonzero;"/>
        <path d="M1238.24,161.213C1231.94,154.908 1224.71,149.551 1216.77,145.351C1207.86,140.644 1198.07,137.392 1187.71,135.915C1184.23,135.413 1180.68,135.118 1177.08,135.037C1199.38,148.583 1201.7,184.893 1194.05,208.789C1192.26,215.057 1188.65,220.416 1183.89,224.497L1264.46,224.497C1264.46,199.783 1254.44,177.406 1238.24,161.213Z" style="fill:rgb(193,193,193);fill-rule:nonzero;"/>
        <path d="M1194.05,208.789C1201.7,184.893 1199.38,148.583 1177.08,135.037L1176.97,135.033C1176.29,135.011 1175.63,135 1174.96,135C1174.29,135 1173.63,135.011 1172.95,135.033C1171.21,135.066 1169.48,135.154 1167.77,135.298C1150.03,136.697 1133.74,143.278 1120.43,153.53C1099.16,169.888 1085.46,195.594 1085.46,224.497L1183.89,224.497C1188.65,220.416 1192.26,215.057 1194.05,208.789Z" style="fill:rgb(216,217,217);fill-rule:nonzero;"/>
        <rect x="1258.5" y="224.497" width="13.41" height="49.222" style="fill:rgb(211,211,211);fill-rule:nonzero;"/>
        <path d="M1164.75,166.546C1156.9,173.641 1150.26,182.068 1145.19,191.358C1142.42,196.426 1139.95,201.96 1135.31,205.397C1130.38,209.054 1123.34,209.612 1117.89,206.778C1112.45,203.944 1108.86,197.857 1109.03,191.72C1109.16,186.684 1111.58,181.999 1114.3,177.763C1123.55,163.403 1139.38,150.705 1156.48,147.421C1160.37,146.675 1164.62,146.565 1168.03,148.576C1176.72,153.707 1169.7,162.073 1164.75,166.546Z" style="fill:white;fill-rule:nonzero;"/>
        <path d="M1196.49,159.092C1196.54,159.413 1196.6,159.732 1196.66,160.044C1198.05,166.479 1204.92,169.766 1210.97,166.48C1214.3,164.676 1216.11,160.236 1214.51,156.804C1211.81,150.986 1200.86,148.867 1197.06,154.923C1196.3,156.141 1196.27,157.645 1196.49,159.092Z" style="fill:white;fill-rule:nonzero;"/>
        <path d="M1102.81,190.645C1102.81,190.645 1105.97,184.152 1110.44,174.749C1128.06,146.585 1159.39,137.15 1176.97,135.033C1176.29,135.011 1175.63,135 1174.96,135C1174.29,135 1173.63,135.011 1172.95,135.033C1153.2,135.463 1135.03,142.286 1120.43,153.53C1099.16,169.888 1085.46,195.594 1085.46,224.497L1121.13,224.497C1110.92,224.497 1098.73,219.999 1098.89,206.044C1099.8,200.555 1101.12,195.473 1102.76,190.766L1102.81,190.645Z" style="fill:rgb(193,193,193);fill-rule:nonzero;"/>
        <path d="M1243.1,193.125C1237.49,163.759 1215.14,144.204 1187.71,135.915C1207.32,138.704 1224.88,147.853 1238.24,161.213C1254.44,177.406 1264.46,199.783 1264.46,224.497L1230.69,224.497C1232.57,223.824 1234.35,222.932 1235.98,221.697C1244.26,215.469 1245.04,203.299 1243.1,193.125Z" style="fill:rgb(156,156,156);fill-rule:nonzero;"/>
        <rect x="1068.31" y="706.285" width="216.27" height="49.218" style="fill:rgb(193,193,193);fill-rule:nonzero;"/>
        <rect x="1080.99" y="681.67" width="190.92" height="24.611" style="fill:rgb(216,217,217);fill-rule:nonzero;"/>
        <rect x="1094.4" y="681.67" width="53.46" height="24.611" style="fill:white;fill-rule:nonzero;"/>
        <rect x="1190.3" y="681.67" width="26.73" height="24.611" style="fill:rgb(234,234,235);fill-rule:nonzero;"/>
        <rect x="1080.99" y="681.67" width="13.41" height="24.611" style="fill:rgb(219,218,218);fill-rule:nonzero;"/>
        <rect x="1244.02" y="681.67" width="27.89" height="24.611" style="fill:rgb(156,156,156);fill-rule:nonzero;"/>
        <rect x="1237.78" y="706.281" width="46.81" height="49.223" style="fill:rgb(156,156,156);fill-rule:nonzero;"/>
        <rect x="1068.31" y="706.281" width="11.1" height="49.223" style="fill:rgb(219,218,218);fill-rule:nonzero;"/>
        <rect x="1079.41" y="706.281" width="63.57" height="49.223" style="fill:white;fill-rule:nonzero;"/>
        <rect x="1196.16" y="706.281" width="19.39" height="49.223" style="fill:rgb(216,217,217);fill-rule:nonzero;"/>
        <path d="M1238.24,818.787C1231.94,825.092 1224.71,830.45 1216.77,834.649C1207.86,839.356 1198.07,842.608 1187.71,844.085C1184.23,844.587 1180.68,844.882 1177.08,844.963C1199.38,831.417 1201.7,795.107 1194.05,771.211C1192.26,764.943 1188.65,759.584 1183.89,755.503L1264.46,755.503C1264.46,780.217 1254.44,802.594 1238.24,818.787Z" style="fill:rgb(193,193,193);fill-rule:nonzero;"/>
        <path d="M1194.05,771.211C1201.7,795.107 1199.38,831.417 1177.08,844.963L1176.97,844.967C1176.29,844.989 1175.63,845 1174.96,845C1174.29,845 1173.63,844.989 1172.95,844.967C1171.21,844.934 1169.48,844.846 1167.77,844.702C1150.03,843.302 1133.74,836.722 1120.43,826.47C1099.16,810.112 1085.46,784.406 1085.46,755.503L1183.89,755.503C1188.65,759.584 1192.26,764.943 1194.05,771.211Z" style="fill:rgb(216,217,217);fill-rule:nonzero;"/>
        <rect x="1258.5" y="706.281" width="13.41" height="49.222" style="fill:rgb(211,211,211);fill-rule:nonzero;"/>
        <path d="M1102.81,789.355C1102.81,789.355 1105.97,795.848 1110.44,805.251C1128.06,833.415 1159.39,842.851 1176.97,844.967C1176.29,844.989 1175.63,845 1174.96,845C1174.29,845 1173.63,844.989 1172.95,844.967C1153.2,844.537 1135.03,837.714 1120.43,826.47C1099.16,810.112 1085.46,784.406 1085.46,755.503L1121.13,755.503C1110.92,755.503 1098.73,760.001 1098.89,773.956C1099.8,779.445 1101.12,784.527 1102.76,789.234L1102.81,789.355Z" style="fill:rgb(193,193,193);fill-rule:nonzero;"/>
        <path d="M1243.1,786.875C1237.49,816.241 1215.14,835.796 1187.71,844.085C1207.32,841.296 1224.88,832.147 1238.24,818.787C1254.44,802.594 1264.46,780.217 1264.46,755.503L1230.69,755.503C1232.57,756.176 1234.35,757.068 1235.98,758.303C1244.26,764.531 1245.04,776.701 1243.1,786.875Z" style="fill:rgb(156,156,156);fill-rule:nonzero;"/>
    </g>
</svg>
