<?xml version="1.0" encoding="UTF-8" standalone="no"?>
<!DOCTYPE svg PUBLIC "-//W3C//DTD SVG 1.1//EN" "http://www.w3.org/Graphics/SVG/1.1/DTD/svg11.dtd">
<svg width="100%" height="100%" viewBox="0 0 200 200" version="1.1" xmlns="http://www.w3.org/2000/svg" xmlns:xlink="http://www.w3.org/1999/xlink" xml:space="preserve" xmlns:serif="http://www.serif.com/" style="fill-rule:evenodd;clip-rule:evenodd;stroke-linejoin:round;stroke-miterlimit:2;">
    <g id="razor" transform="matrix(0.449031,0,0,0.449031,1.73079,-175.7)">
        <g>
            <path d="M310.882,433.978L310.882,442.115L126.81,442.115L126.81,433.978C126.81,433.428 126.834,432.891 126.896,432.353C127.702,425.023 133.932,419.318 141.47,419.318L296.222,419.318C303.772,419.318 309.99,425.023 310.796,432.353C310.857,432.891 310.882,433.428 310.882,433.978Z" style="fill:rgb(224,224,223);fill-rule:nonzero;"/>
            <path d="M231.413,458.407L206.281,458.407C206.281,458.407 207.677,483.655 199.3,500.759L238.394,500.759C230.017,483.655 231.413,458.407 231.413,458.407Z" style="fill:rgb(193,193,193);fill-rule:nonzero;"/>
            <path d="M241.143,500.759L196.551,500.759C194.977,500.759 193.701,502.035 193.701,503.61C193.701,505.184 194.977,506.46 196.551,506.46L241.143,506.46C242.717,506.46 243.994,505.184 243.994,503.61C243.994,502.035 242.717,500.759 241.143,500.759Z" style="fill:rgb(235,235,236);fill-rule:nonzero;"/>
            <path d="M193.701,745.133C193.701,746.708 194.977,747.984 196.551,747.984L241.143,747.984C242.717,747.984 243.994,746.708 243.994,745.133C243.994,743.559 242.717,742.283 241.143,742.283L196.551,742.283C194.977,742.283 193.701,743.559 193.701,745.133Z" style="fill:rgb(235,235,236);fill-rule:nonzero;"/>
            <path d="M193.701,779.413C193.701,780.988 194.977,782.264 196.551,782.264L241.143,782.264C242.717,782.264 243.994,780.988 243.994,779.413C243.994,777.839 242.717,776.563 241.143,776.563L196.551,776.563C194.977,776.563 193.701,777.839 193.701,779.413Z" style="fill:rgb(235,235,236);fill-rule:nonzero;"/>
            <path d="M238.394,506.46L199.3,506.46L199.3,742.283L238.394,742.283L238.394,506.46Z" style="fill:rgb(66,66,67);fill-rule:nonzero;"/>
            <path d="M232.083,506.46L215.59,506.46L215.59,742.283L232.083,742.283L232.083,506.46Z" style="fill:rgb(35,35,35);fill-rule:nonzero;"/>
            <path d="M238.394,747.984L199.3,747.984L199.3,776.97L238.394,776.97L238.394,747.984Z" style="fill:rgb(66,66,67);fill-rule:nonzero;"/>
            <path d="M222.394,808.661L215.3,808.661C206.464,808.661 199.3,801.498 199.3,792.661L199.3,782.264L238.394,782.264L238.394,792.661C238.394,801.498 231.231,808.661 222.394,808.661Z" style="fill:rgb(193,193,193);fill-rule:nonzero;"/>
            <path d="M232.083,747.984L215.59,747.984L215.59,776.97L232.083,776.97L232.083,747.984Z" style="fill:rgb(45,46,46);fill-rule:nonzero;"/>
            <path d="M224.214,458.407L213.48,458.407C213.48,458.407 214.076,483.655 210.498,500.759L227.196,500.759C223.618,483.655 224.214,458.407 224.214,458.407Z" style="fill:rgb(154,154,155);fill-rule:nonzero;"/>
            <path d="M310.796,432.353L126.896,432.353C127.702,425.023 133.932,419.318 141.47,419.318L296.222,419.318C303.772,419.318 309.99,425.023 310.796,432.353Z" style="fill:rgb(243,243,244);fill-rule:nonzero;"/>
        </g>
        <rect x="122.741" y="442.118" width="192.212" height="8.145" style="fill:rgb(193,193,193);fill-rule:nonzero;"/>
        <rect x="115.411" y="450.263" width="206.873" height="8.144" style="fill:rgb(224,224,223);fill-rule:nonzero;"/>
    </g>
</svg>
