<?xml version="1.0" encoding="UTF-8" standalone="no"?>
<!DOCTYPE svg PUBLIC "-//W3C//DTD SVG 1.1//EN" "http://www.w3.org/Graphics/SVG/1.1/DTD/svg11.dtd">
<svg width="100%" height="100%" viewBox="0 0 200 200" version="1.1" xmlns="http://www.w3.org/2000/svg" xmlns:xlink="http://www.w3.org/1999/xlink" xml:space="preserve" xmlns:serif="http://www.serif.com/" style="fill-rule:evenodd;clip-rule:evenodd;stroke-linejoin:round;stroke-miterlimit:2;">
    <g transform="matrix(1,0,0,1,0,-7.86625)">
        <g transform="matrix(0.416809,0,0,0.416809,-76.8414,-143.046)">
            <path d="M489.241,697.522C511.42,693.602 527.253,713.384 530.883,733.974C534.747,755.919 523.849,772.466 503.099,776.124C482.641,779.734 468.048,768.376 464.052,745.755C460.329,724.647 467.785,701.302 489.241,697.522ZM564.73,815.772C544.13,810.629 533.666,790.659 529.341,779.537C532.735,776.735 535.687,773.463 538.141,769.73C545.07,759.172 547.383,745.962 544.835,731.511C542.287,717.06 535.396,704.141 525.429,695.134C514.448,685.215 500.721,681.106 486.777,683.56C475.852,685.488 459.445,669.391 448.426,644.448C445.333,637.443 442.663,629.733 440.66,621.535L436.486,604.075L435.987,601.988L435.968,601.894L381.54,374.194C380.835,375.049 380.186,375.943 379.593,376.864C375.852,382.628 374.234,389.538 375.09,396.42L403.136,623.8C403.484,626.63 404.885,629.216 407.048,631.078C409.436,633.118 412.905,636.277 416.863,640.47C421.696,645.576 427.253,652.214 432.48,660.215C442.24,675.164 450.796,694.899 451.106,718.348C448.661,727.599 448.276,737.867 450.1,748.218C451.397,755.589 453.663,762.143 456.757,767.765L456.766,767.775C466.412,785.347 484.107,793.856 505.563,790.076C509.023,789.465 512.304,788.581 515.406,787.444C522.054,811.579 547.665,824.319 560.509,829.292C564.439,830.816 568.82,828.597 569.92,824.526C570.964,820.671 568.613,816.741 564.73,815.772Z" style="fill:rgb(193,193,193);fill-rule:nonzero;"/>
        </g>
        <g transform="matrix(0.416809,0,0,0.416809,-76.8414,-143.046)">
            <path d="M435.987,601.988L423.774,613.994L379.593,376.864C380.186,375.943 380.835,375.049 381.54,374.194L435.968,601.894L435.987,601.988Z" style="fill:rgb(224,224,223);fill-rule:nonzero;"/>
        </g>
        <g transform="matrix(0.416809,0,0,0.416809,-76.8414,-143.046)">
            <path d="M378.127,751.998C374.131,774.619 359.529,785.968 339.071,782.357C318.33,778.69 307.423,762.143 311.297,740.198C314.935,719.608 330.768,699.835 352.948,703.756C374.404,707.536 381.85,730.89 378.127,751.998ZM460.715,380.456L401.547,627.787C392.409,665.17 369.402,692.266 355.411,689.803C341.468,687.34 327.741,691.448 316.759,701.358C306.793,710.365 299.901,723.284 297.344,737.735C295.257,749.572 296.432,760.582 300.738,769.984C301.678,772.053 302.779,774.046 304.029,775.955C311.118,786.758 322.382,793.8 336.607,796.31C364.936,801.312 386.702,784.886 392.079,754.461C393.904,744.11 393.518,733.843 391.073,724.591C391.544,689.907 410.056,663.355 423.802,648.368C428.409,643.347 432.471,639.634 435.16,637.33C437.322,635.469 438.714,632.883 439.071,630.053L440.303,620.058L440.895,615.292L440.905,615.226L467.165,402.682C468.152,394.7 465.82,386.661 460.715,380.456Z" style="fill:rgb(224,224,223);fill-rule:nonzero;"/>
        </g>
        <g transform="matrix(0.416809,0,0,0.416809,-76.8414,-143.046)">
            <path d="M460.718,380.453L410.122,592.118C416.855,589.669 422.598,585.092 426.283,578.393L462.664,383.123C462.072,382.202 461.423,381.308 460.718,380.453Z" style="fill:rgb(235,235,236);fill-rule:nonzero;"/>
        </g>
        <g transform="matrix(0.416809,0,0,0.416809,-76.8414,-143.046)">
            <path d="M430.412,613.994C430.412,617.285 428.024,620.011 424.883,620.529C424.526,620.604 424.15,620.632 423.774,620.632C423.388,620.632 423.022,620.604 422.655,620.529C419.515,620.011 417.127,617.275 417.127,613.994C417.127,610.713 419.515,607.977 422.655,607.45C423.022,607.375 423.388,607.347 423.774,607.347C424.15,607.347 424.526,607.375 424.883,607.45C428.024,607.967 430.412,610.703 430.412,613.994Z" style="fill:rgb(235,235,236);fill-rule:nonzero;"/>
        </g>
        <g transform="matrix(0.416809,0,0,0.416809,-76.8414,-143.046)">
            <path d="M424.883,607.45L424.883,620.529C424.526,620.604 424.15,620.632 423.774,620.632C423.388,620.632 423.022,620.604 422.655,620.529L422.655,607.45C423.022,607.375 423.388,607.347 423.774,607.347C424.15,607.347 424.526,607.375 424.883,607.45Z" style="fill:rgb(193,193,193);fill-rule:nonzero;"/>
        </g>
        <g transform="matrix(0.416809,0,0,0.416809,-76.8414,-143.046)">
            <path d="M440.895,615.292L439.071,630.053C438.714,632.883 437.322,635.469 435.16,637.33C424.451,646.506 391.703,678.304 391.073,724.591C393.518,733.843 393.904,744.11 392.079,754.461C386.702,784.886 364.936,801.312 336.607,796.31C322.382,793.8 311.118,786.758 304.029,775.955C302.779,774.046 301.678,772.053 300.738,769.984C318.461,789.964 350.08,800.785 368.885,783.015C387.689,765.255 386.438,744.373 385.188,725.569C383.928,706.765 387.689,688.581 403.992,663.515C420.248,638.496 439.635,624.872 440.895,615.292Z" style="fill:rgb(199,199,199);fill-rule:nonzero;"/>
        </g>
        <g transform="matrix(0.416809,0,0,0.416809,-76.8414,-143.046)">
            <path d="M448.426,644.448C443.152,648.885 437.492,654.235 432.48,660.215C429.632,655.852 426.679,651.894 423.802,648.368C428.409,643.347 432.471,639.634 435.16,637.33C437.322,635.469 438.714,632.883 439.071,630.053L440.303,620.058L440.66,621.535C442.663,629.733 445.333,637.443 448.426,644.448Z" style="fill:rgb(172,172,172);fill-rule:nonzero;"/>
        </g>
        <g transform="matrix(0.416809,0,0,0.416809,-76.8414,-143.046)">
            <path d="M301.217,733.337C306.461,708.858 326.848,692.918 342.367,691.534C344.204,691.37 345.774,692.849 345.774,694.693C345.774,696.242 344.656,697.557 343.128,697.812C337.95,698.674 326.27,701.88 318.051,713.641C311.281,723.327 308.736,730.724 307.779,734.917C307.335,736.861 305.199,737.889 303.387,737.059L302.997,736.881C301.648,736.263 300.906,734.787 301.217,733.337Z" style="fill:rgb(235,235,236);fill-rule:nonzero;"/>
        </g>
        <g transform="matrix(0.416809,0,0,0.416809,-76.8414,-143.046)">
            <path d="M569.92,824.526C568.82,828.597 564.439,830.816 560.509,829.292C547.665,824.319 522.054,811.579 515.406,787.444C512.304,788.581 509.023,789.465 505.563,790.076C484.107,793.856 466.412,785.347 456.766,767.775C463.78,775.513 493.65,797.006 524.527,773.369C559.625,746.498 525.429,695.134 525.429,695.134C535.396,704.141 542.287,717.06 544.835,731.511C547.383,745.962 545.07,759.172 538.141,769.73C535.687,773.463 532.735,776.735 529.341,779.537C533.666,790.659 544.13,810.629 564.73,815.772C568.613,816.741 570.964,820.671 569.92,824.526Z" style="fill:rgb(172,172,172);fill-rule:nonzero;"/>
        </g>
    </g>
</svg>
